<svg xmlns="http://www.w3.org/2000/svg" height="11.693in" viewBox="0 0 744.095 1052.362" width="793.699" class="border">
   <path transform="translate(0 -.005)"
      d="M132.29 22.225c-.06-.012-.1-.007-.13.015-.39.308.48 1.866 2 4.592-12.11 2.797-24.25 7.454-35.648 14.33-.439-.057-.88-.1-1.323-.123C89.588 40.726 81.99 45.659 76 53.33c-3.527 4.532-6.428 9.886-8.701 15.533-4.142 5.31-7.978 11.156-11.434 17.58-6.964-.668-13.969.285-20.324 2.797-9.026 3.583-16.365 10.267-20.605 18.47-4.544 8.83-5.073 18.99-1.981 27.67 3.453 9.57 11.176 16.54 19.85 19.27 1.213.38 2.438.67 3.664.88-4.765 35.85-1.355 56.63 14.912 92.72 1.518 3.37 4.317 8.92 7.365 15.54-2.033 14.68-2.39 28-1.91 39.33.058 3.63.281 7.06.611 10.28.225 8.34 1.182 14.34 2.168 18.52l.328 202.41.545 335.63 3.272-.18c1.798-.07 4.621-.72 6.269-1.43 5.365-2.32 3.67 4.33-3.543 13.91-5.366 7.13-6.541 9.62-6.541 13.85 0 6.23 2.711 11.26 6.073 11.26 1.354 0 6.551-2.44 11.548-5.41 7.592-4.52 10.52-5.41 17.807-5.37 23.457.1 39.787 24.78 39.787 60.12 0 11.3-.42 13.83-4.06 24.5-2.28 6.7-6.77 16.08-10.26 21.49-7.82 12-10.74 12.5-20.12 3.1-7.934-7.86-12.294-16.2-10.099-19.29.814-1.15 7.615-6.38 15.109-11.63 7.77-5.43 14.91-11.63 16.62-14.41 5.58-9.07 3.1-23.52-6.15-35.96-5.48-7.36-11-10.48-18.563-10.48-16.121 0-26.791 14.92-26.791 37.47 0 7.18 3.895 28.49 5.482 29.98 2.442 2.31.658 5.48-5.672 10.07-3.702 2.69-8.609 6.95-10.902 9.45-3.482 3.9-4.17 5.6-4.17 10.5 0 7.1 3.843 13.3 9.697 15.6 2.16.9 4.91 1.9 6.11 2.4l.015.1c4.186 1.7 24.039-.3 31.344-3.2 7.04-2.7 7.81-2.7 17.44.3 9.65 2.9 19.18 3.1 222.1 3.1h59.51c202.92 0 212.45-.2 222.1-3.1 9.64-3 10.4-3 17.44-.3 7.31 2.9 27.16 4.9 31.35 3.2l.01-.1c1.2-.5 3.95-1.5 6.11-2.4 5.85-2.3 9.7-8.5 9.7-15.6 0-4.9-.69-6.6-4.17-10.5-2.29-2.5-7.2-6.76-10.9-9.45-6.33-4.59-8.12-7.76-5.68-10.07 1.59-1.49 5.49-22.8 5.49-29.98 0-22.55-10.67-37.47-26.79-37.47-7.56 0-13.08 3.12-18.56 10.48-9.26 12.44-11.73 26.89-6.16 35.96 1.71 2.78 8.86 8.98 16.62 14.41 7.5 5.25 14.3 10.48 15.11 11.63 2.2 3.09-2.16 11.43-10.1 19.29-9.38 9.4-12.3 8.9-20.11-3.1-3.5-5.41-7.99-14.79-10.27-21.49-3.64-10.67-4.06-13.2-4.06-24.5 0-35.34 16.33-60.02 39.79-60.12 7.29-.04 10.22.85 17.81 5.37 4.99 2.97 10.19 5.41 11.55 5.41 3.36 0 6.07-5.03 6.07-11.26 0-4.23-1.18-6.72-6.54-13.85-7.22-9.58-8.91-16.23-3.55-13.91 1.65.71 4.47 1.36 6.27 1.43l3.27.18.55-335.63.33-202.42c.98-4.17 1.94-10.17 2.17-18.51.33-3.2.55-6.62.61-10.24.48-11.33.12-24.68-1.91-39.37 3.04-6.62 5.84-12.17 7.36-15.54 16.27-36.09 19.68-56.87 14.91-92.72 1.23-.21 2.45-.5 3.67-.88 8.67-2.73 16.4-9.7 19.85-19.27 3.09-8.68 2.56-18.84-1.98-27.67-4.24-8.203-11.58-14.887-20.61-18.47-6.35-2.512-13.36-3.465-20.32-2.797-3.46-6.422-7.29-12.265-11.43-17.574-2.28-5.649-5.18-11.006-8.71-15.539-5.99-7.671-13.59-12.604-21.19-12.291-.44.023-.88.066-1.32.123-11.4-6.876-23.53-11.533-35.64-14.33 1.52-2.726 2.38-4.284 2-4.592-.03-.022-.08-.027-.14-.015-.51.094-2.18 1.418-4.49 4.045-3.33-.697-6.65-1.273-9.95-1.704-5.58-.729-11.1-1.093-16.48-1.132-16.14-.119-31.03 2.686-42.63 7.328-7.74 3.094-14.02 7-18.25 11.476-4.23 4.477-6.4 9.602-5.65 14.895l1.98-.279c-.65-4.593 1.18-9.066 5.13-13.243 3.94-4.176 9.99-7.977 17.53-10.994 15.09-6.034 36.11-8.942 58.12-6.068 2.9.38 5.83.865 8.76 1.451-1.53 1.901-3.24 4.241-5.08 7.18-3.27 5.229-6.94 12.448-9.72 21.347-14.73.327-28.26 4.244-38.3 10.069-5.85 3.394-10.52 7.434-13.55 11.836-3.03 4.401-4.42 9.209-3.54 13.968l1.97-.363c-.77-4.159.4-8.394 3.21-12.473s7.26-7.958 12.92-11.238c9.55-5.544 22.53-9.352 36.68-9.777a96.152 96.152 0 0 0-3.58 20.717c-.02.239-.02.482-.03.722-8.73 1.25-16.47 4.595-22.3 9.153-8.22 6.417-12.75 15.329-10.68 24.049l1.94-.46c-1.84-7.78 2.18-15.926 9.97-22.013 5.46-4.26 12.73-7.448 20.98-8.694-.52 16.464 2.91 34.457 10.81 53.277 7.07 16.89 16.64 32.58 27.83 49.12l1.26 1.86c11.09 16.35 20.51 29.37 29.52 44.49 8.59 14.44 14.89 27.74 18.94 40.81-1.11 6.35-2.34 14.13-3.02 22.25-1.53 6.3-2.36 12.44-1.92 17.95.41 5.1 1.96 9.68 5.05 13.19.55 1.06 1.17 2.04 1.88 2.92l.23 234.84c.18 187.87-.1 292.64-.79 295.43-.9 3.61-1.75 4.31-5.29 4.31-10.4 0-10.43 14.35-.06 29.03 5.29 7.49 4.43 8.96-2.97 5.13-7.53-3.91-21.36-6.37-31.01-5.51-6.36.56-9.99 1.91-14.82 5.5-7.34 5.47-16.09 18.54-20.27 30.27-3.54 9.94-4.96 28.96-3.13 41.97 1.87 13.32 9.59 30.28 18.04 39.64 5.42 6 6.78 8.3 5.88 10-.96 1.7-42.34 2.1-221.11 2.1h-59.53c-178.76 0-220.15-.4-221.1-2.1-.9-1.7.46-4 5.87-10 8.46-9.36 16.18-26.32 18.05-39.64 1.83-13.01.41-32.03-3.14-41.97-4.18-11.73-12.93-24.8-20.27-30.27-4.82-3.59-8.46-4.94-14.82-5.5-9.646-.86-23.48 1.6-31.011 5.51-7.399 3.83-8.256 2.36-2.966-5.13 10.371-14.68 10.342-29.03-.061-29.03-3.534 0-4.393-.7-5.291-4.31-.692-2.79-.973-107.56-.791-295.43l.229-234.84c.707-.87 1.331-1.85 1.88-2.91 3.09-3.51 4.642-8.1 5.051-13.2.441-5.5-.384-11.64-1.916-17.93-.68-8.12-1.912-15.91-3.023-22.27 4.053-13.06 10.349-26.36 18.939-40.81 9.015-15.12 18.43-28.14 29.52-44.49l1.26-1.86c11.19-16.54 20.76-32.23 27.84-49.12 7.9-18.82 11.33-36.813 10.8-53.277 8.25 1.246 15.53 4.434 20.98 8.694 7.8 6.087 11.81 14.233 9.97 22.013l1.95.46c2.06-8.72-2.47-17.632-10.69-24.049-5.83-4.558-13.57-7.903-22.29-9.153-.02-.24-.02-.483-.04-.722a95.543 95.543 0 0 0-3.58-20.717c14.15.424 27.13 4.233 36.69 9.777 5.65 3.28 10.1 7.159 12.91 11.238s3.98 8.314 3.21 12.473l1.97.363c.88-4.759-.5-9.567-3.53-13.968-3.03-4.402-7.71-8.442-13.56-11.836-10.04-5.825-23.56-9.742-38.29-10.069-2.79-8.899-6.46-16.118-9.73-21.347a72.329 72.329 0 0 0-5.07-7.18c2.93-.586 5.85-1.071 8.76-1.451 22-2.874 43.03.034 58.11 6.068 7.55 3.017 13.6 6.818 17.54 10.994 3.94 4.177 5.77 8.65 5.13 13.243l1.98.279c.74-5.293-1.43-10.418-5.66-14.895-4.22-4.476-10.51-8.382-18.24-11.476-11.61-4.642-26.5-7.447-42.64-7.328-5.38.039-10.9.403-16.48 1.132-3.3.431-6.62 1.007-9.95 1.704-2.31-2.627-3.98-3.951-4.49-4.045zm2.87 6.429c1.25 2.28 2.71 4.985 4.39 8.573 2.35 5.01 4.99 11.584 6.98 19.392-.3.015-.59.019-.89.037-8.69.525-17.65 2.361-26.44 5.821-.74-1.994-1.54-3.887-2.43-5.663-4-8.044-9.47-13.215-15.48-15.048 10.87-6.276 22.38-10.525 33.87-13.112zm473.78 0c11.48 2.587 22.99 6.835 33.86 13.112-6.01 1.833-11.48 7.004-15.48 15.048a59.001 59.001 0 0 0-2.43 5.663c-8.78-3.46-17.75-5.296-26.43-5.821-.3-.018-.6-.022-.9-.037 1.99-7.808 4.63-14.382 6.98-19.392 1.68-3.588 3.14-6.293 4.4-8.573zM94.62 52.236c.368.002.735.018 1.102.051 5.885.458 11.495 5.267 15.375 13.234.09.173.17.355.25.53-11.91 6.153-23.23 15.583-32.801 29.135a47.338 47.338 0 0 0-9.488-5.42 44.713 44.713 0 0 0-2.207-.86c.139-.755.291-1.513.457-2.275 1.97-9.099 5.955-18.724 11.539-25.416 4.542-5.467 10.247-8.997 15.773-8.979zm554.85 0c5.53-.018 11.23 3.512 15.77 8.979 5.59 6.692 9.57 16.317 11.54 25.416.17.762.32 1.52.46 2.275-.74.268-1.48.551-2.21.86a47.631 47.631 0 0 0-9.49 5.42c-9.57-13.552-20.89-22.982-32.8-29.135.08-.176.16-.357.25-.53 3.88-7.967 9.49-12.776 15.38-13.234.37-.033.73-.049 1.1-.051zM147.01 58.6c1.46 6.258 2.48 13.253 2.58 20.857-1.15.003-2.3.028-3.47.105-7.14.474-14.64 2.405-22.1 6.149-.64-7.802-2.05-15.062-4.17-21.387 8.61-3.378 17.4-5.157 25.91-5.672.42-.025.83-.033 1.25-.052zm450.07 0c.42.019.83.027 1.25.052 8.52.515 17.3 2.296 25.91 5.674-2.12 6.325-3.52 13.584-4.16 21.385-7.46-3.745-14.96-5.675-22.11-6.149a54.773 54.773 0 0 0-3.47-.105c.1-7.604 1.12-14.599 2.58-20.857zm-484.94 9.232c2.52 6.068 4.12 13.672 4.76 22.037-8.07 5.402-15.93 13.131-23.097 23.691-.143-.3-.275-.61-.424-.9a49.628 49.628 0 0 0-13.287-16.299c9.363-13.312 20.418-22.527 32.048-28.529zm519.82 0c11.62 6.002 22.68 15.217 32.04 28.529a49.661 49.661 0 0 0-13.29 16.299c-.15.29-.28.6-.42.9-7.16-10.56-15.03-18.289-23.1-23.691.64-8.365 2.24-15.969 4.77-22.037zM65.04 75.201a88.125 88.125 0 0 0-2.502 10.078c-.138.748-.26 1.488-.377 2.225a45.084 45.084 0 0 0-4.201-.809 124.139 124.139 0 0 1 7.08-11.494zm614.01.004c2.5 3.599 4.87 7.425 7.08 11.49-1.41.202-2.81.472-4.2.809-.12-.737-.24-1.477-.38-2.225a85.807 85.807 0 0 0-2.5-10.074zm-530.42 6.252c.32-.007.64.003.96.002-.07 15.436-3.87 32.151-11.74 50.121-7.01 15.93-16.37 30.84-27.44 47.24-.42.61-.83 1.23-1.25 1.84-4.75 6.99-9.228 13.52-13.551 19.98 5.071-11.12 10.211-22.74 14.011-32.77 5.41-14.13 10.24-30.36 12.82-47.3 1.49-9.77 2.19-19.49 1.92-28.955-.04-1.273-.11-2.53-.19-3.779 7.48-3.863 14.98-5.807 22.08-6.277.8-.053 1.59-.086 2.38-.102zm446.83 0c.79.016 1.58.049 2.38.102 7.1.47 14.61 2.414 22.08 6.277-.08 1.249-.14 2.506-.19 3.779-.26 9.465.43 19.185 1.92 28.955 2.59 16.94 7.41 33.17 12.82 47.3 3.8 10.03 8.95 21.65 14.01 32.77-4.32-6.46-8.8-12.99-13.54-19.98-.42-.61-.84-1.23-1.25-1.84-11.07-16.4-20.44-31.31-27.44-47.24-7.88-17.97-11.67-34.685-11.75-50.121.32.001.64-.009.96-.002zM117.04 92.148c.04.817.1 1.625.12 2.454.3 8.008-.32 16.388-1.68 25.008-2.33 14.9-6.76 29.79-11.63 43.13-6.793 18.38-21.32 49.32-27.594 64.72-.084.2-.161.4-.244.61.976-2.77 2.012-5.56 3.129-8.36 3.599-9.04 9.26-21.1 12.953-31.67 4.162-11.93 6.976-24.88 7.703-38.38.533-8.77.021-18.14-2.598-27.17-.672-2.32-1.49-4.6-2.445-6.84 6.916-10.46 14.506-18.115 22.286-23.502zm510.01 0c7.78 5.387 15.37 13.042 22.29 23.512-.96 2.23-1.77 4.51-2.45 6.83-2.61 9.03-3.13 18.4-2.6 27.17.73 13.5 3.55 26.45 7.71 38.38 3.69 10.57 9.35 22.63 12.95 31.67 1.12 2.8 2.15 5.58 3.13 8.34-.09-.2-.16-.39-.24-.59-6.28-15.4-20.81-46.34-27.6-64.72-4.87-13.34-9.29-28.23-11.63-43.13-1.35-8.62-1.97-17-1.68-25.008.03-.829.08-1.637.12-2.454zm-576.78 3.78c.321-.007.642.002.964.004-3.813 8.628-6.994 18.158-9.414 28.668-.207.33-.403.67-.566 1a11.874 11.874 0 0 0-1.094 7.01c-.051.27-.106.54-.156.82-.932 5.17-1.727 9.97-2.436 14.58-.797-.18-1.59-.4-2.371-.67-6.238-2.14-11.906-7.73-14.228-14.75-2.154-6.39-1.48-14.17 2.008-20.67 3.241-6.1 9.094-11.15 16.033-13.826 3.509-1.359 7.347-2.085 11.26-2.166zm643.55 0c3.92.081 7.75.807 11.26 2.166 6.94 2.676 12.79 7.726 16.04 13.826 3.48 6.5 4.16 14.28 2 20.67-2.32 7.02-7.98 12.61-14.22 14.75-.78.27-1.58.49-2.37.67-.71-4.61-1.51-9.41-2.44-14.58-.05-.27-.11-.54-.16-.82.28-1.86.2-4.36-1.09-7.01-.16-.33-.36-.67-.57-1-2.42-10.51-5.6-20.04-9.41-28.668.32-.002.64-.011.96-.004zm-640.46.076c2.618.171 5.24.631 7.793 1.377-.399 9.009.682 16.819 2.362 22.619.226.78.468 1.52.714 2.24-.178.45-.354.91-.529 1.38a14.402 14.402 0 0 0-3.299-3.03 13.61 13.61 0 0 0-9.058-2.1 12.99 12.99 0 0 0-6.702 2.91c2.334-9.25 5.273-17.7 8.719-25.396zm637.36 0c3.44 7.696 6.38 16.146 8.72 25.396a13.107 13.107 0 0 0-6.71-2.91c-2.88-.36-6.16.22-9.05 2.1-1.23.81-2.34 1.83-3.3 3.03-.18-.47-.35-.93-.53-1.38.25-.72.49-1.46.71-2.24 1.68-5.8 2.76-13.61 2.37-22.619a36.173 36.173 0 0 1 7.79-1.377zM65.67 99.039c2.644 1.171 5.167 2.701 7.512 4.511a127.669 127.669 0 0 0-6.323 12.35c-.963-4.66-1.502-10.45-1.189-16.861zm612.74 0c.31 6.411-.23 12.201-1.19 16.861-1.97-4.41-4.09-8.51-6.32-12.35 2.34-1.81 4.86-3.34 7.51-4.511zM74.71 104.8a40.598 40.598 0 0 1 9.75 12.39c1.167 2.24 2.105 4.61 2.865 7.07-5.844 10.84-11.028 23.94-15.199 39.71-9.104 34.4-11.973 52.7-9.44 78.75-.844 3.54-1.562 7.01-2.207 10.44-12.277-39.73-12.081-58.55-2.474-102.77.549-.41 1.086-.84 1.595-1.3 4.282-3.73 6.917-8.79 7.422-13.98.253-2.87-.226-5.67-1.301-8.14-.203-.47-.433-.91-.677-1.35.075-.2.154-.4.23-.6 2.573 6.11 5.752 9.52 8.01 11.22 2.958 2.23 4.823 2.14 4.943 1.7.182-.67-1.365-1.72-3.738-4.72-2.026-2.56-4.938-7.03-6.873-14.09 2.18-5.16 4.553-9.93 7.094-14.33zm594.64 0c2.54 4.4 4.91 9.17 7.09 14.33-1.93 7.06-4.84 11.53-6.87 14.09-2.37 3-3.92 4.05-3.74 4.72.12.44 1.99.53 4.94-1.7 2.26-1.7 5.44-5.11 8.01-11.22l.24.6c-.25.44-.48.88-.68 1.35a16.594 16.594 0 0 0-1.3 8.14c.5 5.19 3.14 10.25 7.42 13.98.51.46 1.04.89 1.59 1.3 9.61 44.22 9.81 63.04-2.47 102.77-.65-3.43-1.36-6.9-2.21-10.44 2.54-26.05-.33-44.35-9.44-78.75-4.17-15.77-9.35-28.87-15.2-39.71.76-2.46 1.7-4.83 2.87-7.07 2.42-4.77 5.79-9 9.75-12.39zM51.69 122.77c1.953-.06 4.138.54 5.855 1.88 1.357 1.04 2.474 2.58 3.119 4.37.21.57.348 1.19.452 1.82a176.04 176.04 0 0 0-2.985 10.29 19.303 19.303 0 0 1-2.849 2.91c-2.648 2.14-6.012 3.68-9.645 4.26-1.978.32-4.056.33-6.131.06.589-3.81 1.253-7.8 1.996-12.01.344.47.633.67.733.62.282-.14-.037-1.06-.125-2.83-.018-.35-.014-.78.004-1.23.233-1.26.478-2.51.732-3.74a9.71 9.71 0 0 1 1.059-2.05c1.426-2.13 4.317-4.28 7.785-4.35zm640.66 0c3.47.07 6.36 2.22 7.78 4.35.46.67.8 1.36 1.06 2.05.26 1.23.5 2.48.73 3.74.02.45.02.88.01 1.23-.09 1.77-.41 2.69-.13 2.83.1.05.39-.15.73-.62.75 4.21 1.41 8.2 2 12.01-2.07.28-4.15.26-6.13-.06-3.63-.58-7-2.12-9.64-4.26-1.08-.89-2.03-1.87-2.85-2.91-.92-3.55-1.92-7-2.99-10.29.11-.63.24-1.25.45-1.82.65-1.79 1.77-3.33 3.12-4.37 1.72-1.34 3.91-1.94 5.86-1.88zm-36.39 4.27c5.35 10.32 10.12 22.68 14.03 37.44 8.39 31.73 11.45 49.42 9.87 72.3-1.78-6.63-3.92-13.42-6.51-20.32-3.5-9.38-9.04-21.77-12.29-31.52-3.75-11.23-6.27-23.32-6.87-35.79-.3-7.42.03-15.04 1.77-22.11zm-567.89 0c1.737 7.07 2.074 14.69 1.773 22.11-.598 12.47-3.121 24.56-6.869 35.79-3.247 9.75-8.789 22.14-12.297 31.52a221.799 221.799 0 0 0-6.506 20.32c-1.582-22.88 1.476-40.57 9.873-72.3 3.904-14.75 8.678-27.12 14.026-37.44zm-32.471 24.97c-9.2 42.95-9.188 62.52 3.01 101.93.264.85.731 2.22 1.105 3.35-.165.97-.309 1.94-.459 2.9-2.554-5.43-4.811-9.95-6.08-12.76-16.19-35.92-19.533-56.07-14.766-91.64 2.9.3 5.783.15 8.53-.4a27.408 27.408 0 0 0 8.66-3.38zm632.83 0a27.54 27.54 0 0 0 8.66 3.38c2.75.55 5.63.7 8.53.4 4.77 35.57 1.43 55.72-14.76 91.64-1.27 2.81-3.53 7.33-6.08 12.76-.15-.96-.3-1.92-.46-2.9.37-1.13.84-2.5 1.11-3.35 12.19-39.41 12.2-58.97 3-101.93zm-10.61 129.85c3.98 17.87 3.35 33.53 2.13 44.3a12.62 12.62 0 0 1-3.69-3.66c-.72-1.73-1.28-3.68-1.7-5.82-1.12-5.77-1.19-12.81-.72-19.95.05-.76.13-1.52.19-2.28.03-.19.07-.39.1-.58.45-1.83.96-3.67 1.52-5.51.66-2.17 1.39-4.35 2.17-6.5zm-611.61 0c.774 2.16 1.507 4.33 2.17 6.5.562 1.84 1.066 3.68 1.518 5.51.034.19.072.39.105.58.062.76.14 1.52.19 2.28.469 7.14.392 14.18-.729 19.95-.416 2.14-.976 4.1-1.693 5.82-.986 1.47-2.201 2.71-3.69 3.66-1.217-10.77-1.855-26.43 2.129-44.3zm34.986 638.01c1.02.06 2.01.42 3.28 1.05 10.2 5.08 16.04 20.27 12.1 31.49-1.5 4.29-8.39 11.31-20.147 20.55-5.396 4.24-10.152 7.71-10.567 7.71-1.105 0-1.836-2.21-4.203-12.71-2.684-11.92-2.651-17.82.145-27.25 3.093-10.42 5.87-14.41 12.766-18.35 3.181-1.82 4.937-2.58 6.626-2.49zm541.63 0c1.69-.09 3.45.67 6.63 2.49 6.9 3.94 9.67 7.93 12.77 18.35 2.79 9.43 2.82 15.33.14 27.25-2.37 10.5-3.1 12.71-4.2 12.71-.42 0-5.17-3.47-10.57-7.71-11.76-9.24-18.65-16.26-20.15-20.55-3.93-11.22 1.9-26.41 12.11-31.49 1.26-.63 2.25-.99 3.27-1.05zm-562.63 74.64h.002c2.011-.04 3.631 1.89 6.235 5.79 2.5 3.7 7.628 9.1 11.394 11.9 3.769 2.9 6.599 5.8 6.289 6.6-.31.7-2.75 2.2-5.425 3.2h-.004c-5.79 2.3-17.023 2.2-22.643-.1-4.911-2-9.596-8.3-9.596-12.9 0-2.2 1.756-5.1 5.178-8.4 4.161-4.03 6.56-6.05 8.57-6.09zm583.63 0c2.01.04 4.41 2.06 8.57 6.09 3.42 3.3 5.18 6.2 5.18 8.4 0 4.6-4.69 10.9-9.6 12.9-5.62 2.3-16.85 2.4-22.64.1-2.67-1-5.11-2.5-5.42-3.2-.31-.8 2.52-3.7 6.28-6.6 3.77-2.8 8.89-8.2 11.39-11.9 2.61-3.89 4.23-5.83 6.24-5.79z" />
</svg>