<svg class="border" width="1707" height="1606" viewBox="-10 -10 1300 1220" xmlns="http://www.w3.org/2000/svg">
  <path
    d="M363.4 2c-4.3 2.1-6.4 5.3-6.4 9.5 0 2.4.3 2.5 5.8 2.6 11 .2 12 1.6 1.2 1.6-11.8.1-15.8.7-21.2 3.4-7.2 3.7-9.8 9.6-7.8 17.9 1.6 6.6 4.8 10 9.5 10 3.9 0 8-1.9 19.2-8.6 9.1-5.5 12.1-5.7 5.4-.4-5.3 4.2-5.9 5.6-4 9.3 4.2 8 8.2 8.5 20.5 2.2 9.7-5 11.4-5.3 13.6-2.8 2.5 2.8 3 6 1.8 9.8-1 3.1-2.3 4.1-9 7.5-12.4 6.2-32.4 18-62 36.5-45.8 28.6-59.1 35.5-77 40.1-6.2 1.6-7 2.1-6.6 3.9.3 1.1.8 4.4 1.2 7.2.8 6.3 1.1 6.3 12.7 3.4 19.6-5.1 38.1-14.5 84.9-43.4 61.4-38 89-50.4 121.8-54.8 13.4-1.8 36.4-.6 48.2 2.5 18.9 5 37.1 13.9 52 25.3l5.8 4.4 5.5-4.7c3-2.7 5.2-5.1 4.8-5.4-26.8-21.9-52-34.2-79.4-38.6-13.5-2.2-36.9-1.4-51.4 1.6-9.9 2.1-28 7.7-38.4 11.9-4.9 2-5.3 2-4.5.4.4-1 1-5.1 1.2-9C411.7 26.6 399.3 7 383.4 2c-8.4-2.6-14.8-2.6-20 0zM68.3 9.9c-16.8 2.7-30.1 9.7-42.9 22.5-7.6 7.7-9.9 10.7-13.7 18.6C1.4 72 .5 91 9.1 111.5c9.7 23.3 32.3 43.1 64.8 56.5l7.4 3-.6-3.8c-.3-2-.9-6-1.3-8.8l-.6-5.1-7.7-3.7c-12.4-6.2-21.1-12.3-29.7-21-25.6-25.9-25.7-62.4-.2-86.1 18.3-16.9 42.5-20.3 65.2-9 7.9 3.9 7.3 4 15.6-3.3 4.4-3.9 4.5-4.1 2.5-5.6-4.6-3.6-17.7-9.7-25.7-12-9.6-2.8-22.6-3.9-30.5-2.7z" />
  <path
    d="M193.3 14.5c-30.7 5.8-55 18.9-76.3 41.1-8.9 9.2-19.5 22.7-18.2 23.1.4.1 5.5-1 11.4-2.5l10.7-2.7 5.8-6.9c11-13.2 30.9-26 49.6-32 18.2-5.9 42.6-7.6 61.7-4.2 23.3 4.1 48.8 16 68.5 32 2.8 2.2 9.8 8.7 15.7 14.4l10.7 10.4 6.7-3.8c3.7-2.2 6.9-4.4 7.1-5.1.5-1.5-20.3-22.5-28.2-28.5-22.8-17.2-47-28.7-72.5-34.3-10.3-2.3-42.8-2.9-52.7-1zM697.8 44.1C669.3 48.3 642.3 60.3 588 93c-18.4 11.1-40.9 23.9-50 28.4-15.1 7.5-36.4 15.6-45 17-3.4.6-3.4.6.9-1.4 6.4-3 16.4-10.3 20.5-15.2 2-2.3 4.3-6.5 5.2-9.3 1.5-4.7 1.5-5.6 0-10.8-1.5-5-2.3-6.1-6.9-9.2l-5.2-3.5-.6 6c-.6 6.3-1.9 9.4-1.9 4.6 0-1.5-.7-5.9-1.6-9.7-1.9-8.2-5.5-13.1-11.1-15-5-1.6-18.3-.6-21.7 1.6-6.2 4.1-4.1 9.5 7.6 19.3 7.9 6.5 11.6 10.2 10.5 10.2-.2 0-3.1-1.6-6.3-3.5-3.3-2-6.8-3.4-7.9-3.3-2.8.4-4.6 4.9-4.6 11.4 0 6.9 1.6 9.4 8.3 13.1 6 3.2 7 5.6 3.9 9.4-3.1 4-12.7 8.2-19.7 8.7-13.4.9-36.3-4.7-52.9-13-9.1-4.6-22.4-13-30.6-19.4-3-2.4-5.8-4.4-6.2-4.4-1.1 0-10.7 6.4-10.7 7.2 0 1.2 13.4 11.9 23.9 18.9 36.8 24.7 72.8 32 111.2 22.3 21.9-5.5 45.3-16.4 77.4-36 51.7-31.5 62.8-38 75-43.9 31-15.2 53.1-21 79-20.8 15.6.2 27.9 2.3 42.2 7.2 16.7 5.9 18.2 7.4 14.5 14.8-1.1 2.1-2.2 5.5-2.6 7.6-1 5.2 1 14.2 3.9 17.5 2 2.3 3.1 2.7 7.3 2.7 4 0 5.6-.5 7.7-2.5 2.4-2.2 2.6-3 2.1-7.4-.8-6.9.7-4.7 3.9 5.8 4.2 14 9.2 17.3 19 12.6 7.4-3.5 10.5-7.5 10.5-13.4 0-6-3.4-11.9-10.8-18.7-3.7-3.4-5.7-5.7-4.5-5 4.4 2.3 8.7.9 11.1-3.5.9-1.8.8-2.8-1.1-5.5-3.5-5.3-10.2-8.1-20.5-8.7-9.4-.5-14.1.9-20.2 5.8l-2.5 2-10.6-5.5c-12.8-6.6-28-11.8-40.8-13.9-10-1.7-29.6-1.9-39.3-.5z" />
  <path
    d="m148.6 56.9-4.9 5 4.7 5.3c2.5 2.9 6.4 8.7 8.5 12.8 7.2 14 10 26 12.6 54 .9 9 1.7 16.5 1.8 16.6.1.1 3.9-.5 8.5-1.3l8.3-1.6-.6-7.6c-2.5-29.9-6.2-46.5-14-62.6-5.2-10.8-15.4-24.7-18.6-25.3-.8-.1-3.6 2-6.3 4.7zM1001 68.7c-35.7 2.5-66.3 9.9-145 35.3-49.4 15.9-72.7 22.5-96 26.9-21 4-27.3 4.6-50.5 4.6-19.8-.1-24.4-.4-33-2.3-22.2-4.8-40.4-13-58.4-26.3l-3.3-2.4-4.4 5-4.4 5 2.8 2.3c1.5 1.3 7 5.2 12.3 8.7 39.7 26.7 88.3 32.1 153.2 17 20.5-4.7 44.1-11.9 92.2-28.1 77.6-26.1 105.6-32.9 141.7-34.1 24-.8 27.4.5 32.1 12.5 2.1 5.2 2.1 6.2.2 6.2-4.6 0-12.8 6.5-15.9 12.7-2.1 4.2-2.1 11.9 0 12.7 3.4 1.3 8.9.5 13.1-2 2.5-1.4 4.6-2.4 4.9-2.2.2.3-1.4 3.5-3.7 7.2-2.2 3.7-4.1 8.1-4.1 9.7-.1 4 3.3 7.4 10.1 10 14.6 5.5 24.3-2.2 22.8-18.1-.3-3-.9-6.4-1.3-7.5-.5-1.4.2-1 2.3 1.2 5.3 5.6 14.3 4.1 14.3-2.4 0-9.3-16.7-22.2-28.7-22.3h-5.3l-2.8-6.3c-1.7-3.7-4.3-7.4-6.3-9l-3.4-2.8 9 .6c30.5 1.9 59.7 6.3 85.6 13 15.8 4 26.8 7.5 68.9 22 22.9 7.9 31.9 9.8 45 9.9 10.8 0 11.9-.2 18-3.1 10.2-4.8 15.4-11 16.6-19.6 1.3-9.2-5.6-17.8-17-21.3-5.1-1.5-22.6-3.2-22.6-2.1 0 .3 3.3 1.1 7.3 1.7 16.2 2.8 26.7 10.7 26.7 20.2 0 9.6-12.8 17.8-27.8 17.8-11.5 0-20.2-2.7-67.7-21-46-17.7-85.4-26.2-134.5-29-16.5-.9-32.8-1.1-43-.3z" />
  <path
    d="M128 84.5c-22.1 3.7-42.7 11.7-58.9 22.8-6 4.1-18.1 14.6-18.1 15.7 0 .5 3 3.4 6.7 6.4l6.8 5.4 4.5-4.2c20.5-19.2 46.7-30.2 76.3-32.2 12.1-.8 11.2.4 7.7-9.9l-1.7-5-7.9-.2c-4.3-.1-11.3.4-15.4 1.2zM184.3 85.2c.4 1.3 1.2 4.6 1.8 7.3l1.1 5.1 7.6 3.4c14.8 6.7 24.4 19.7 27.8 38.1 1.3 6.6 1.5 11.9 1 24.9-.3 9.1-.9 18.2-1.2 20.3l-.6 3.8 7.3-.3 7.4-.3 1.2-8.5c1.7-12.2 1.6-38.1-.1-46-4-18.5-12.7-31.3-27.1-39.9-5.2-3.2-17-7.8-23.9-9.5-2.6-.6-2.8-.5-2.3 1.6z" />
  <path
    d="m100 119-10.5 4.7-1.2 6.4c-1.7 8.9-1.6 23 .2 33.3 5.9 34 28.8 54.5 64 57.2l8.1.7 1.3-7.3c1.5-8.2 1.1-8.9-4.9-9-10.3-.1-25.3-6.1-33.6-13.4-6.6-5.8-10.6-12.1-14.1-22.1-2.5-7.4-2.7-9.1-2.7-23 0-12.3.4-16.5 2.2-23.4 1.2-4.6 2.1-8.5 2-8.6-.2-.1-5 1.9-10.8 4.5zM23.6 156.2c-14.7 32.4-14.7 62.6-.1 93.6 7.7 16.3 22.7 38.7 37.2 55.8 3.8 4.6 4.3 5.7 4.3 10.2 0 3.9-.6 5.7-2.5 8-4.5 5.4-9 6.5-29.5 7.2-20.2.6-22.3 1.2-28.7 7.3-3.4 3.2-5 8-3.8 11.6.8 2.7 3.4 2.7 7.6-.2l3.4-2.3-2.8 5.6c-5.2 10.5-5.4 22.9-.5 30.8 3 4.8 9.4 9.2 13.5 9.2 7.6 0 10-7 8.9-24.8-.9-12.5.5-14.8 2.9-5 1.8 7.7 3.7 10.8 6.5 10.8 2.9 0 9.8-5.8 12-9.9 2.6-5.1 2.5-8.7-.1-15.9-1.2-3.1-2.2-7-2.3-8.6-.1-2.6.4-3 5.1-4.6 7.6-2.5 11.8-6.1 14.1-12.1l1.8-5.1 12.6 15.4c24.7 30.3 35.6 46.1 46.3 67.3 7.8 15.4 12.2 27.5 15.6 43.5 2 9 2.3 13.3 2.3 30.5 0 17.8-.3 21.4-2.7 32.3-6.3 29.5-19.5 59.6-40 91l-8 12.2 2.3 6.3c1.2 3.4 2.5 6.6 2.9 7 .9.9 14.2-17.6 23.3-32.3 40.7-65.9 49.6-122.5 28.1-179-10.4-27.5-24.9-50.1-60.2-94-33.5-41.7-42.8-54.9-51.2-72.5-8.8-18.6-11.5-30.2-10.6-47.1.6-12.1 2.2-19.2 7.1-30.5l3.3-7.6-6-4.9c-9.1-7.4-8.3-7.5-12.1.8z" />
  <path
    d="M202.7 152.6c-18.7 5.6-37.6 8.3-64.4 9.1-11.2.3-20.3.9-20.3 1.2.1.3.7 3.3 1.3 6.6l1.3 6 16.9-.1c23.2-.1 44.1-2.6 65.6-8l10.7-2.7-.5-6.1c-.5-7-.9-8.6-2-8.5-.4.1-4.3 1.2-8.6 2.5zM178.8 181.2c-4.3.8-5.8 1.5-5.8 2.7-.3 17.4-2.3 49.7-3.4 56.6-3.6 21-11.7 41-23.8 58-3.4 4.9-11.8 14.6-18.6 21.5-6.7 6.8-12 13-11.8 13.7.3.7 2.2 3.5 4.2 6.2l3.7 5 4.1-3.1c6.7-5.1 26.7-25.8 31.6-32.5 18.1-25.1 25.6-48.9 28-88.3.5-9.1 1-22 1-28.8 0-13.8.9-12.7-9.2-11zM224.9 196.4c-9.2 1.4-16.3 2.9-24.8 5.3l-5.4 1.5.7 7.6c.3 4.1.7 7.7.9 7.9.2.1 5.3-.8 11.3-2.2 15.8-3.6 23.4-4.5 37.5-4.5 24.5 0 38.6 6.3 46.5 21 2.9 5.3 2.7 21-.3 26.6-3.5 6.6-7.4 10.5-12.8 13-10.5 5-23.9 2.1-33-7-8.7-8.7-12.5-19.1-12.5-34.5v-9.3l-6.7.7c-3.8.4-7.2 1.2-7.6 1.9-1.3 1.7 0 24.6 1.6 29.7 10.2 31.5 41.5 47.1 68 33.7 23.5-11.8 31.3-43 16.6-66-6.9-10.7-21.5-20.3-36.9-24.3-8.8-2.2-32-2.8-43.1-1.1zM81 361.8c-40.4 44.2-51.3 98.6-34 170 6.9 28.3 16.2 53.6 44.5 120.7 19.4 46 27.2 68.7 31 90 1.8 10.5 2.1 31.3.5 44.1-3.9 31.5-13 57.2-37.4 104.8-17.3 34-25.1 54.4-29.2 76.7-2.5 13.2-2.5 44.3 0 59.4 5 31.1 13.2 55 34.9 101.6 16.3 35 18.3 41.9 15.3 52.3-6.3 21.5-30.3 20.5-35.1-1.5l-1.3-6.4-.1 5.5c-.3 22.7 19.6 33 34.7 17.9 4.8-4.7 7.2-10 8.1-17.7 1.8-14.4-1.7-26.3-19.2-65.7-22.2-50-28.8-76.1-28.9-114.5 0-15.9 1.4-29.4 4.3-39.5l1.1-3.9 1.5 2.9c3 5.8 7.6 10.7 12.9 13.7 6.5 3.6 6.7 4.8 2.4 16.6-1.8 5-3 10.2-3 13.1 0 4.3.4 5.2 3.5 8 2 1.7 4.4 3.1 5.4 3.1 1.6 0 1.8-.6 1.4-4.3-.6-4.7 1.3-7.4 4.3-6.3 1.8.7 1.8.6-1.7 13.7-2.8 10.6-1.9 15.5 3.5 18.8 14.8 9.2 36.3-15.8 30.2-35.2-1.2-4.1-1.2-4.6 0-3.6.8.6 1.9 2.9 2.6 5.2l1.2 4 1.2-3.4c3.2-8.7-.3-19.7-7.9-24.7-3.6-2.4-5.3-2.8-15.6-3.4-6.4-.3-13.9-1.3-16.8-2.2-10.7-3.4-19-11.4-21.3-20.7-1-4.2-.9-5.3 2.1-12.9 1.7-4.6 6.2-14.3 9.9-21.4 31.8-62.1 34.7-68.4 40.9-90.2 6.7-23.8 9.7-47.9 8.8-71.9-1.3-33-7.9-54.5-41.8-134.7-25.8-61.3-37.4-98.9-39.4-128.8l-.6-9.5 2.6 5.2c10.1 20.2 36.1 27.1 58.6 15.7 17.5-8.8 26.6-32.8 15.8-41.8-4.3-3.6-5.9-3.4-5.3.6.3 1.8 0 4.6-.6 6.3l-1.2 3-1.4-5.4c-5.5-20.7-15.8-28.6-30.8-23.5-8.3 2.8-11.2 11.2-6 17.3 1.4 1.7 5.9 5.5 10 8.3 4.1 2.8 7.4 5.6 7.4 6.1s-1.5-.1-3.2-1.3c-5.1-3.3-9.8-5.1-12.6-4.8-4 .5-6.7 5-6.7 11.5 0 5.5 0 5.6 5.9 10.8 7.3 6.6 7.4 8.9.1 9.3-18.7 1.2-30.6-15.3-30.9-42.8-.1-10.4 1.1-16.6 5.9-31.7 5.3-16.3 21.1-42.1 33.8-55.1l5.2-5.3L95 359c-3-2.7-5.8-5-6.2-5-.4 0-3.9 3.5-7.8 7.8z" />
  <path
    d="M72.1 639.1c-4.7 7.4-19.1 37.1-23.5 48-6.1 15.3-8.3 24.2-9.7 39.6-2.7 29.6 1.4 50.3 13.4 67.1l3.1 4.2-1.8 7c-4.6 17.6 2.5 29.7 18.6 31.5 8.3 1 15-.8 18.8-5.1 3.8-4.4 3.8-5.4-.2-5.4-1.8 0-4-.5-4.8-1-1.1-.7-.2-1 3.2-1 9.7 0 20.6-5.8 24.7-13.1 6.1-10.9-.6-26-10.9-24.5-2.8.4-5 2.1-11.5 9.1-4.4 4.7-8.3 8.5-8.7 8.5-1.9 0-.5-2.8 2.9-5.7 3.7-3.1 3.8-3.2 2.3-5.9-2.4-4.4-6.6-6.9-11.3-6.8-6.3.1-11.6 2.2-16.2 6.5l-4.2 3.9-3.1-6.8c-6.2-13.5-6.7-16.7-6.7-39.7.1-22.5 1.1-30.8 5.2-43.5 3.4-10.4 15.9-35.6 23.2-46.8 3.4-5.1 6.1-9.8 6.1-10.3 0-1-4-9.1-5.9-11.8-.7-1.1-1.4-.7-3 2z" />
</svg>